<svg id="Ebene_1" data-name="Ebene 1" xmlns="http://www.w3.org/2000/svg" xmlns:xlink="http://www.w3.org/1999/xlink" viewBox="0 0 788.16 799.36"><defs><style>.cls-1{fill:url(#Unbenannter_Verlauf_2);}.cls-2{fill:url(#Unbenannter_Verlauf_14);}.cls-3{fill:url(#Unbenannter_Verlauf_17);}.cls-4{fill:#fff;}.cls-5{fill:url(#Unbenannter_Verlauf_17-2);}.cls-13,.cls-14,.cls-15,.cls-6,.cls-7,.cls-8{stroke:#aaa496;stroke-width:0.1px;}.cls-10,.cls-13,.cls-14,.cls-15,.cls-6,.cls-7,.cls-8{stroke-miterlimit:10;}.cls-6{fill:url(#Unbenannter_Verlauf_12);}.cls-7{fill:url(#Unbenannter_Verlauf_12-2);}.cls-8{fill:url(#Unbenannter_Verlauf_12-3);}.cls-9{fill:url(#Unbenannter_Verlauf_17-3);}.cls-10,.cls-11{fill:none;}.cls-10{stroke:#db000f;}.cls-12{fill:url(#Unbenannter_Verlauf_17-4);}.cls-13{fill:url(#Unbenannter_Verlauf_12-4);}.cls-14{fill:url(#Unbenannter_Verlauf_12-5);}.cls-15{fill:url(#Unbenannter_Verlauf_12-6);}.cls-16{fill:url(#Unbenannter_Verlauf_17-5);}.cls-17{opacity:0.23;}.cls-18{fill:url(#Unbenannter_Verlauf_14-2);}.cls-19{fill:url(#Unbenannter_Verlauf_17-6);}.cls-20{fill:url(#Unbenannter_Verlauf_17-7);}.cls-21{fill:url(#Unbenannter_Verlauf_17-8);}.cls-22{fill:url(#Unbenannter_Verlauf_17-9);}.cls-23{fill:url(#Unbenannter_Verlauf_17-10);}.cls-24{fill:url(#Unbenannter_Verlauf_17-11);}.cls-25{fill:url(#Unbenannter_Verlauf_17-12);}.cls-26{fill:url(#Unbenannter_Verlauf_17-13);}.cls-27{fill:url(#Unbenannter_Verlauf_17-14);}.cls-28{fill:url(#Unbenannter_Verlauf_17-15);}.cls-29{fill:url(#Unbenannter_Verlauf_17-16);}.cls-30{fill:url(#Unbenannter_Verlauf_17-17);}.cls-31{fill:url(#Unbenannter_Verlauf_17-18);}.cls-32{fill:url(#Unbenannter_Verlauf_17-19);}.cls-33{fill:url(#Unbenannter_Verlauf_17-20);}.cls-34{fill:url(#Unbenannter_Verlauf_17-21);}.cls-35{opacity:0;fill:url(#Unbenannter_Verlauf_17-22);}</style><radialGradient id="Unbenannter_Verlauf_2" cx="805.51" cy="-1255.22" r="152.82" gradientTransform="matrix(1, 0.02, 0, -0.12, -405, 380.36)" gradientUnits="userSpaceOnUse"><stop offset="0" stop-color="#010604" stop-opacity="0.4"/><stop offset="1" stop-color="#1e8132" stop-opacity="0"/></radialGradient><linearGradient id="Unbenannter_Verlauf_14" x1="801.39" y1="696.32" x2="792.04" y2="316.34" gradientTransform="matrix(1, 0, 0, -1, -258.29, 911.4)" gradientUnits="userSpaceOnUse"><stop offset="0" stop-color="#1e8132"/><stop offset="0.66" stop-color="#3aa733" stop-opacity="0.8"/><stop offset="0.67" stop-color="#3aa733" stop-opacity="0.66"/><stop offset="0.69" stop-color="#3aa733" stop-opacity="0.48"/><stop offset="0.72" stop-color="#3aa733" stop-opacity="0.33"/><stop offset="0.74" stop-color="#3aa733" stop-opacity="0.21"/><stop offset="0.77" stop-color="#3aa733" stop-opacity="0.11"/><stop offset="0.81" stop-color="#3aa733" stop-opacity="0.05"/><stop offset="0.86" stop-color="#3aa733" stop-opacity="0.01"/><stop offset="1" stop-color="#3aa733" stop-opacity="0"/></linearGradient><linearGradient id="Unbenannter_Verlauf_17" x1="791.23" y1="565.15" x2="801.36" y2="355.48" gradientTransform="matrix(1, 0, 0, -1, -258.29, 911.4)" gradientUnits="userSpaceOnUse"><stop offset="0" stop-color="#1e8132"/><stop offset="1" stop-color="#2c5e38"/></linearGradient><linearGradient id="Unbenannter_Verlauf_17-2" x1="650.72" y1="243.55" x2="661.81" y2="283.33" xlink:href="#Unbenannter_Verlauf_17"/><linearGradient id="Unbenannter_Verlauf_12" x1="641.43" y1="273.66" x2="595.93" y2="317.24" gradientTransform="matrix(1, 0, 0, -1, -258.29, 911.4)" gradientUnits="userSpaceOnUse"><stop offset="0" stop-color="#b6ab8d"/><stop offset="1" stop-color="#e0d2ad"/></linearGradient><linearGradient id="Unbenannter_Verlauf_12-2" x1="664.32" y1="237.04" x2="684.21" y2="307.11" xlink:href="#Unbenannter_Verlauf_12"/><linearGradient id="Unbenannter_Verlauf_12-3" x1="658.04" y1="240.11" x2="723.37" y2="327.53" xlink:href="#Unbenannter_Verlauf_12"/><linearGradient id="Unbenannter_Verlauf_17-3" x1="788.88" y1="246.55" x2="791.11" y2="263.47" xlink:href="#Unbenannter_Verlauf_17"/><linearGradient id="Unbenannter_Verlauf_17-4" x1="-88.57" y1="243.56" x2="-77.48" y2="283.34" gradientTransform="translate(598.99 911.4) rotate(180)" xlink:href="#Unbenannter_Verlauf_17"/><linearGradient id="Unbenannter_Verlauf_12-4" x1="-97.84" y1="273.66" x2="-143.34" y2="317.24" gradientTransform="translate(598.99 911.4) rotate(180)" xlink:href="#Unbenannter_Verlauf_12"/><linearGradient id="Unbenannter_Verlauf_12-5" x1="-74.95" y1="237.04" x2="-55.06" y2="307.11" gradientTransform="translate(598.99 911.4) rotate(180)" xlink:href="#Unbenannter_Verlauf_12"/><linearGradient id="Unbenannter_Verlauf_12-6" x1="-81.25" y1="240.09" x2="-15.99" y2="327.41" gradientTransform="translate(598.99 911.4) rotate(180)" xlink:href="#Unbenannter_Verlauf_12"/><linearGradient id="Unbenannter_Verlauf_17-5" x1="49.61" y1="246.55" x2="51.84" y2="263.47" gradientTransform="translate(598.99 911.4) rotate(180)" xlink:href="#Unbenannter_Verlauf_17"/><linearGradient id="Unbenannter_Verlauf_14-2" x1="800.69" y1="667.24" x2="792.51" y2="335.23" xlink:href="#Unbenannter_Verlauf_14"/><linearGradient id="Unbenannter_Verlauf_17-6" x1="296.32" y1="818.16" x2="703.44" y2="669.13" gradientTransform="matrix(1, 0, 0, 1, 0, 0)" xlink:href="#Unbenannter_Verlauf_17"/><linearGradient id="Unbenannter_Verlauf_17-7" x1="301.17" y1="831.41" x2="708.3" y2="682.38" gradientTransform="matrix(1, 0, 0, 1, 0, 0)" xlink:href="#Unbenannter_Verlauf_17"/><linearGradient id="Unbenannter_Verlauf_17-8" x1="307.42" y1="848.48" x2="714.54" y2="699.45" gradientTransform="matrix(1, 0, 0, 1, 0, 0)" xlink:href="#Unbenannter_Verlauf_17"/><linearGradient id="Unbenannter_Verlauf_17-9" x1="296.86" y1="819.63" x2="703.98" y2="670.6" gradientTransform="matrix(1, 0, 0, 1, 0, 0)" xlink:href="#Unbenannter_Verlauf_17"/><linearGradient id="Unbenannter_Verlauf_17-10" x1="299.7" y1="827.4" x2="706.83" y2="678.36" gradientTransform="matrix(1, 0, 0, 1, 0, 0)" xlink:href="#Unbenannter_Verlauf_17"/><linearGradient id="Unbenannter_Verlauf_17-11" x1="303.49" y1="837.76" x2="710.62" y2="688.72" gradientTransform="matrix(1, 0, 0, 1, 0, 0)" xlink:href="#Unbenannter_Verlauf_17"/><linearGradient id="Unbenannter_Verlauf_17-12" x1="308.2" y1="850.62" x2="715.32" y2="701.58" gradientTransform="matrix(1, 0, 0, 1, 0, 0)" xlink:href="#Unbenannter_Verlauf_17"/><linearGradient id="Unbenannter_Verlauf_17-13" x1="312.29" y1="861.79" x2="719.42" y2="712.76" gradientTransform="matrix(1, 0, 0, 1, 0, 0)" xlink:href="#Unbenannter_Verlauf_17"/><linearGradient id="Unbenannter_Verlauf_17-14" x1="317.67" y1="876.47" x2="724.79" y2="727.44" gradientTransform="matrix(1, 0, 0, 1, 0, 0)" xlink:href="#Unbenannter_Verlauf_17"/><linearGradient id="Unbenannter_Verlauf_17-15" x1="320.51" y1="884.24" x2="727.63" y2="735.2" gradientTransform="matrix(1, 0, 0, 1, 0, 0)" xlink:href="#Unbenannter_Verlauf_17"/><linearGradient id="Unbenannter_Verlauf_17-16" x1="323.41" y1="892.17" x2="730.54" y2="743.14" gradientTransform="matrix(1, 0, 0, 1, 0, 0)" xlink:href="#Unbenannter_Verlauf_17"/><linearGradient id="Unbenannter_Verlauf_17-17" x1="329.48" y1="908.74" x2="736.6" y2="759.7" gradientTransform="matrix(1, 0, 0, 1, 0, 0)" xlink:href="#Unbenannter_Verlauf_17"/><linearGradient id="Unbenannter_Verlauf_17-18" x1="333.07" y1="918.56" x2="740.2" y2="769.52" gradientTransform="matrix(1, 0, 0, 1, 0, 0)" xlink:href="#Unbenannter_Verlauf_17"/><linearGradient id="Unbenannter_Verlauf_17-19" x1="336.73" y1="928.55" x2="743.86" y2="779.52" gradientTransform="matrix(1, 0, 0, 1, 0, 0)" xlink:href="#Unbenannter_Verlauf_17"/><linearGradient id="Unbenannter_Verlauf_17-20" x1="341.42" y1="941.36" x2="748.54" y2="792.32" gradientTransform="matrix(1, 0, 0, 1, 0, 0)" xlink:href="#Unbenannter_Verlauf_17"/><linearGradient id="Unbenannter_Verlauf_17-21" x1="345.61" y1="952.81" x2="752.73" y2="803.77" gradientTransform="matrix(1, 0, 0, 1, 0, 0)" xlink:href="#Unbenannter_Verlauf_17"/><linearGradient id="Unbenannter_Verlauf_17-22" x1="76.35" y1="709.73" x2="1003.65" y2="370.27" gradientTransform="matrix(1, 0, 0, 1, 0, 0)" xlink:href="#Unbenannter_Verlauf_17"/></defs><g id="Ebene_6" data-name="Ebene 6"><ellipse class="cls-1" cx="399.22" cy="540.39" rx="262.97" ry="23.68"/></g><g id="Ebene_1-2" data-name="Ebene 1"><g id="_Radiale_Wiederholung_" data-name=" Radiale Wiederholung "><path class="cls-2" d="M771.83,441.39l-60.14-63.22,2.16-87.23a13.79,13.79,0,0,0-13.44-14.14h0l-87.24-2.17L553,211.42a13.79,13.79,0,0,0-19.51-.49h0l-63.22,60.16L383,268.93a13.77,13.77,0,0,0-14.13,13.43v0l-2.17,87.23L303.5,429.77a13.8,13.8,0,0,0-.49,19.51h0l60.19,63.25L361,599.73a13.79,13.79,0,0,0,13.45,14.13h0L461.68,616l60.15,63.21a13.83,13.83,0,0,0,19.52.49l63.22-60.16,87.23,2.16A13.79,13.79,0,0,0,706,608.35v-.06l2.16-87.23,63.22-60.16A13.8,13.8,0,0,0,771.83,441.39ZM752.6,458.84l-52.89,50.33-5.84,5.56-.2,8.06-1.81,73A11.55,11.55,0,0,1,680,607l-73-1.81-8-.2h0l-5.84,5.55L540.3,660.9a11.52,11.52,0,0,1-16.28-.34l0,0-50.34-52.88-5.55-5.84-8.11-.28-73-1.81a11.56,11.56,0,0,1-11.26-11.83h0l1.81-73,.2-8.05h0L372.2,501l-50.32-52.89a11.53,11.53,0,0,1,.38-16.31h0l52.89-50.26L381,376l.2-8.06,1.81-73a11.54,11.54,0,0,1,11.81-11.27h0l73,1.81,3.41.08,4.64.12h0l5.84-5.55,52.89-50.32a11.52,11.52,0,0,1,16.3.39l0,0,50.33,52.88,2.35,2.48,3.21,3.36,8.06.2,73,1.81a11.56,11.56,0,0,1,11.26,11.83l-1.81,73-.2,8.05h0l5.55,5.84L753,442.53a11.53,11.53,0,0,1-.39,16.3Z" transform="translate(-145.92 -140.32)"/></g></g><g id="Ebene_2" data-name="Ebene 2"><path class="cls-3" d="M610.87,477.08c0,17.73,9.61,14.38,9.61,27.11V561.1h-9.94V501.26c0-8.81-5.75-16-12.86-16s-12.86,7.14-12.86,16v50.56a86.25,86.25,0,0,1-15.2,9.29V500.7c0-22-14.41-39.91-32.18-39.91s-32.18,17.87-32.18,39.91v60.41a85.45,85.45,0,0,1-15.19-9.29V501.26c0-8.81-5.77-16-12.87-16s-12.85,7.14-12.85,16v59.85h-9.94V504.19c0-12.73,9.6-9.38,9.6-27.11,0-14.95-22.07-8.18-22.07-36.19,0-106.7,95.5-84.87,95.5-127.6,0,42.73,95.51,20.9,95.51,127.6C633,468.9,610.87,462.13,610.87,477.08Z" transform="translate(-145.92 -140.32)"/><path class="cls-4" d="M575.8,402.85a37.5,37.5,0,1,1-48.59-38.94,31.58,31.58,0,1,0,48.59,38.94Z" transform="translate(-145.92 -140.32)"/><polygon class="cls-4" points="410.77 253.81 402.29 252.21 396.14 258.29 395.06 249.71 387.38 245.75 395.19 242.06 396.58 233.53 402.5 239.82 411.06 238.51 406.89 246.09 410.77 253.81"/></g><path class="cls-5" d="M527.27,662.8a33.8,33.8,0,0,0-7.54,4.1C516,664,510,660.82,493,658.73c-39.56-4.86-234.68,11.62-234.68,11.62l14-20.18s6.36,3.81,12.13,4.91c13.13,2.52,33-1.66,38.66-2.66s48.82-10.28,57.08-11.61,36-5.3,58.2-3c16,1.69,31.91,4,44.31,7.28S527.27,662.8,527.27,662.8Z" transform="translate(-145.92 -140.32)"/><path class="cls-6" d="M531.61,661.37a32.07,32.07,0,0,0-4.35,1.43s-32.18-14.37-44.57-17.69-28.26-5.58-44.3-7.28c-22.16-2.32-50,1.65-58.21,3s-51.44,10.63-57.07,11.62-25.53,5.17-38.66,2.65c-5.77-1.1-12.13-4.91-12.13-4.91l66.07-94.85,6.12-.44,3-6.3,8.25-.68-71,96.41a217.38,217.38,0,0,0,30.79,2.47c15.77,0,32.29-5.63,54.81-12.6s37.81-9.19,66.34-7.53,52.67,8.64,62.82,14.27C508.09,645.67,530.89,660.89,531.61,661.37Z" transform="translate(-145.92 -140.32)"/><path class="cls-7" d="M539.73,660.34a30,30,0,0,0-8.11,1h0c-.72-.48-23.52-15.7-32-20.45-10.15-5.63-34.3-12.61-62.83-14.27s-43.81.55-66.34,7.53-39,12.6-54.81,12.6a217.38,217.38,0,0,1-30.79-2.47l71-96.41,3-6.3,7.14-.33-65,92.91s-1.51,2.66,13.9,2.48,22.51-7.79,48.81-14.1,53.7-8.53,81.09-5.31,56,11.94,69.09,18.59C525.79,641.87,537.64,657.53,539.73,660.34Z" transform="translate(-145.92 -140.32)"/><path class="cls-8" d="M540,660.35h-.3c-2.08-2.83-13.94-18.47-25.87-24.5-13.15-6.64-41.68-15.36-69.1-18.58a231.23,231.23,0,0,0-81.09,5.31c-26.28,6.31-33.39,13.95-48.77,14.08S301,634.18,301,634.18l65-92.91,3.37-6s9.39,1,18,1.64,21.76-1,29.65-2,21.38-7.38,42-6.38,36.8,3.77,52.57,12.72a196.34,196.34,0,0,1,25.57,17s3.08,2.34,3.08,2.67Z" transform="translate(-145.92 -140.32)"/><path class="cls-9" d="M540,660.34v13.92c-14.35-.51-15.59-3.76-20.3-7.36a37.24,37.24,0,0,1,12-5.53h0A30.91,30.91,0,0,1,540,660.34Z" transform="translate(-145.92 -140.32)"/><path class="cls-10" d="M540.25,660.35H540" transform="translate(-145.92 -140.32)"/><polyline class="cls-11" points="393.81 537.37 393.81 533.93 393.81 520"/><path class="cls-12" d="M552.7,662.8a33.8,33.8,0,0,1,7.54,4.1C564,664,570,660.82,587,658.73c39.56-4.86,234.68,11.62,234.68,11.62l-14-20.18s-6.36,3.81-12.13,4.91c-13.13,2.52-33-1.66-38.66-2.66s-48.82-10.28-57.08-11.61-36-5.3-58.2-3c-16,1.69-31.91,4-44.31,7.28S552.7,662.8,552.7,662.8Z" transform="translate(-145.92 -140.32)"/><path class="cls-13" d="M548.37,661.37a32.4,32.4,0,0,1,4.34,1.43s32.18-14.37,44.57-17.69,28.27-5.59,44.31-7.28c22.16-2.32,49.95,1.65,58.2,3s51.44,10.63,57.08,11.62,25.53,5.17,38.66,2.65c5.77-1.1,12.13-4.91,12.13-4.91l-66.08-94.87-6.12-.44-3-6.3-8.25-.68,71,96.41a217.36,217.36,0,0,1-30.78,2.47c-15.78,0-32.29-5.63-54.81-12.6s-37.81-9.19-66.34-7.53-52.68,8.64-62.83,14.27C571.89,645.67,549.08,660.89,548.37,661.37Z" transform="translate(-145.92 -140.32)"/><path class="cls-14" d="M540.25,660.34a30,30,0,0,1,8.11,1h0c.71-.48,23.52-15.7,32-20.45,10.15-5.63,34.29-12.61,62.83-14.27s43.81.55,66.34,7.53,39,12.6,54.81,12.6a217.62,217.62,0,0,0,30.79-2.47l-71-96.41-3-6.3-7.15-.33,65,92.91s1.51,2.66-13.9,2.48-22.52-7.79-48.81-14.1a231.75,231.75,0,0,0-81.09-5.31c-27.39,3.23-56,11.94-69.1,18.59C554.19,641.87,542.33,657.53,540.25,660.34Z" transform="translate(-145.92 -140.32)"/><path class="cls-15" d="M540,660.35h.3c2.08-2.83,13.94-18.47,25.86-24.5,13.16-6.64,41.68-15.36,69.1-18.58s54.81-1,81.1,5.31,33.42,13.93,48.8,14.09S779,634.18,779,634.18l-65-92.91-3.37-6s-9.39,1-18,1.64-21.77-1-29.66-2-21.38-7.38-42-6.38-36.8,3.77-52.57,12.72a181.8,181.8,0,0,0-26.28,18,18.85,18.85,0,0,0-1.85,1.73Z" transform="translate(-145.92 -140.32)"/><path class="cls-16" d="M540,660.34v13.92c14.34-.51,15.58-3.76,20.3-7.36a37.44,37.44,0,0,0-12-5.53h0A31,31,0,0,0,540,660.34Z" transform="translate(-145.92 -140.32)"/><path class="cls-10" d="M540,660.35h-.22" transform="translate(-145.92 -140.32)"/><polyline class="cls-11" points="394.32 520 394.32 533.93 394.32 537.37"/><g id="_Radiale_Wiederholung_2" data-name=" Radiale Wiederholung 2" class="cls-17"><path class="cls-18" d="M742.26,441.89l-52.57-55.24,1.9-76.22a12.06,12.06,0,0,0-11.76-12.36h0l-76.22-1.89-52.56-55.24a12.07,12.07,0,0,0-17.06-.41L478.76,293.1l-76.22-1.9A12,12,0,0,0,390.18,303l-1.89,76.23-55.24,52.55a12.07,12.07,0,0,0-.43,17L385.18,504l-1.89,76.21A12,12,0,0,0,395,592.59h0l76.24,1.94,52.56,55.24a12.08,12.08,0,0,0,17,.42l55.24-52.56,76.27,1.9a12.06,12.06,0,0,0,12.35-11.75l1.9-76.25L741.83,459a12.07,12.07,0,0,0,.44-17.07Zm-16.81,15.25-46.21,44-5.1,4.86-.18,7-1.58,63.78A10.11,10.11,0,0,1,662,586.61L598.26,585l-7-.17h0l-5.1,4.85-46.22,44a10.08,10.08,0,0,1-14.24-.33l0,0-44-46.21-4.85-5.1-7-.18L406,580.27a10.1,10.1,0,0,1-9.83-10.35l1.58-63.76.17-7h0l-4.85-5.1-44-46.21a10.09,10.09,0,0,1,.34-14.27h0l46.21-44,5.1-4.86.18-7,1.58-63.78a10.09,10.09,0,0,1,10.34-9.83l63.76,1.58,3,.07,4.05.1h0l5.1-4.85,46.21-44a10.07,10.07,0,0,1,14.24.32l0,0,44,46.21,2.06,2.17,2.8,2.93,7,.18,63.79,1.58a10.1,10.1,0,0,1,9.83,10.34l-1.54,63.76-.16,7h0l4.84,5.1,44,46.21a10.07,10.07,0,0,1-.34,14.26Z" transform="translate(-145.92 -140.32)"/></g><path class="cls-19" d="M501.22,776.68c0,.48-.39.71-1.17.71a8.45,8.45,0,0,1-1.16-.08q-5.4-.25-9.25-.25-4,0-11.86.25c-1.74.05-3,.08-3.86.08s-1.35-.25-1.35-.75c0-.28.17-.45.5-.51s1.48-.11,3.45-.17c1.86-.33,2.94-.85,3.24-1.55s.45-2.95.45-6.76V724.14c-.06-1-.09-1.49-.09-1.43q0-2.1-4.49-2.1c-1.68,0-2.52-.2-2.52-.59s.12-.61.36-.67a16.64,16.64,0,0,1,2.34-.08h23.62c.77,0,1.16.21,1.16.63a.55.55,0,0,1-.4.6,18.53,18.53,0,0,1-2.74.19c-1.86.12-3,.48-3.41,1.09l-.27,1.6v47.39c0,2.4.28,3.83.85,4.27s2.5.76,5.79.92C501,776,501.22,776.26,501.22,776.68Z" transform="translate(-145.92 -140.32)"/><path class="cls-20" d="M551.25,759.42q0,.33-1,6-.72,4.2-1.8,12.1H512.81c-1.86,0-3.45,0-4.76.1-1.74.1-3.32.15-4.76.15-.78,0-1.17-.2-1.17-.59a1.6,1.6,0,0,1,.36-.84q1.8-2.52,6.92-11.59l19-32.93a112.42,112.42,0,0,0,5.65-10.25c-1.43-.11-4.13-.16-8.08-.16q-8.35,0-12.39,3.27a22.52,22.52,0,0,0-6.74,9.66c-.36,1-.78,1.51-1.26,1.51s-.72-.25-.72-.75a2.68,2.68,0,0,1,.27-1.1q.72-3.18,3.33-15,4.85.59,22.18.59,6.29,0,12.31-.4c2-.12,3.23-.19,3.77-.19.9,0,1.7,0,2.42.08q-.45,2-3.55,7.41-4.15,6.89-12.35,20.82-1.06,1.85-16.32,28.23,10.32,0,11.76-.08,7.71-.25,11.67-1.77,6.18-2.36,9.06-13.87c.18-.83.54-1.26,1.08-1.26S551.25,758.8,551.25,759.42Z" transform="translate(-145.92 -140.32)"/><path class="cls-21" d="M609.45,774q0,4.71-6.56,4.71-8.26,0-13.2-4.89a13.71,13.71,0,0,1-4.4-8.08l-.9-6.91q-.9-6.57-3.28-9.18t-7.68-2.53v19.13q0,6.65.09,7.16a2,2,0,0,0,1.26,2,13.88,13.88,0,0,0,4.76.54c1.43,0,2.15.26,2.15.76s-.36.67-1.07.67H553.49q-1.26,0-1.26-.6c0-.45,1.23-.72,3.69-.83,2-.11,3.23-.55,3.59-1.34a12.67,12.67,0,0,0,.27-3.54V727.69a38.92,38.92,0,0,0-.18-5.18,1.79,1.79,0,0,0-1.17-1.22,11.6,11.6,0,0,0-4-.51c-1.32,0-2-.25-2-.76s.27-.63.81-.71a38.94,38.94,0,0,1,4.31-.13h18.06q12.57,0,17.15,1.85a12.86,12.86,0,0,1,5.75,4.37,10.66,10.66,0,0,1,2.15,6.47q0,8.05-9,11.92A43.28,43.28,0,0,1,580,746.31l-.09.51q9.78.58,14.19,4.83t5.3,13.73c.48,5,1.22,8.19,2.24,9.45a4.2,4.2,0,0,0,3.15,1.89c.89,0,1.34-.22,1.34-.67,0-.22-.34-.53-1-.93a1.83,1.83,0,0,1-1-1.67c0-1.52.9-2.27,2.69-2.27S609.45,772.13,609.45,774Zm-22.73-42.42q0-10.83-9.16-10.83c-2,0-3.2.61-3.68,1.84q-.45,1.18-.45,9.16v14q7,.07,10.15-3.28T586.72,731.61Z" transform="translate(-145.92 -140.32)"/><path class="cls-22" d="M324.09,792.11h8v32.2h-8Z" transform="translate(-145.92 -140.32)"/><path class="cls-23" d="M337.51,821.13l2.71-5.61a21.2,21.2,0,0,0,11.36,3.36c4.72,0,6.64-1.47,6.64-3.45,0-6-20-1.89-20-13.85,0-5.47,4.72-10,14.51-10a24.31,24.31,0,0,1,12,2.86l-2.46,5.65a20.47,20.47,0,0,0-9.54-2.53c-4.72,0-6.54,1.66-6.54,3.68,0,5.94,20,1.84,20,13.67,0,5.38-4.77,10-14.61,10C346.07,824.86,340.56,823.34,337.51,821.13Z" transform="translate(-145.92 -140.32)"/><path class="cls-24" d="M371.6,792.11h8v26.13h17.27v6.07H371.6Z" transform="translate(-145.92 -140.32)"/><path class="cls-25" d="M424.27,817.41h-16l-3.05,6.9h-8.17l15.35-32.2h7.87l15.39,32.2h-8.36Zm-2.51-5.66-5.46-12.33-5.46,12.33Z" transform="translate(-145.92 -140.32)"/><path class="cls-26" d="M470.6,824.31,470.55,805l-10.13,15.92h-3.59L446.75,805.4v18.91h-7.48v-32.2h6.59l12.89,20,12.69-20H478l.09,32.2Z" transform="translate(-145.92 -140.32)"/><path class="cls-27" d="M500.16,792.11h8v32.2h-8Z" transform="translate(-145.92 -140.32)"/><path class="cls-28" d="M513.59,821.13l2.7-5.61a21.2,21.2,0,0,0,11.36,3.36c4.72,0,6.64-1.47,6.64-3.45,0-6-20-1.89-20-13.85,0-5.47,4.72-10,14.5-10a24.28,24.28,0,0,1,12,2.86l-2.46,5.65a20.47,20.47,0,0,0-9.54-2.53c-4.72,0-6.54,1.66-6.54,3.68,0,5.94,20,1.84,20,13.67,0,5.38-4.77,10-14.61,10C522.14,824.86,516.64,823.34,513.59,821.13Z" transform="translate(-145.92 -140.32)"/><path class="cls-29" d="M554.31,798.18h-11v-6.07h30v6.07h-11v26.13h-8Z" transform="translate(-145.92 -140.32)"/><path class="cls-30" d="M591.49,792.11h8v26.13h17.26v6.07H591.49Z" transform="translate(-145.92 -140.32)"/><path class="cls-31" d="M647.85,818.33v6H621.2v-32.2h26v6H629.12v7h16v5.8h-16v7.45Z" transform="translate(-145.92 -140.32)"/><path class="cls-32" d="M685.77,815.52c0,5.57-4.72,8.79-13.77,8.79H654.2v-32.2H671c8.6,0,13,3.35,13,8.37a7.69,7.69,0,0,1-4.57,7.08C683.31,808.71,685.77,811.47,685.77,815.52Zm-23.65-17.8v7.59H670c3.88,0,6-1.29,6-3.82s-2.12-3.77-6-3.77Zm15.64,17c0-2.71-2.22-4-6.35-4h-9.29v8h9.29C675.54,818.7,677.76,817.5,677.76,814.74Z" transform="translate(-145.92 -140.32)"/><path class="cls-33" d="M718.48,818.33v6H691.82v-32.2h26v6h-18.1v7h16v5.8h-16v7.45Z" transform="translate(-145.92 -140.32)"/><path class="cls-34" d="M756.4,792.11v32.2h-6.54l-17.17-19.55v19.55h-7.86v-32.2h6.59l17.11,19.55V792.11Z" transform="translate(-145.92 -140.32)"/><path class="cls-35" d="M885.54,140.32H194.46a48.54,48.54,0,0,0-48.54,48.54V891.14a48.54,48.54,0,0,0,48.54,48.54H885.54a48.54,48.54,0,0,0,48.54-48.54V188.86A48.54,48.54,0,0,0,885.54,140.32ZM923.35,888.6a40.19,40.19,0,0,1-40.19,40.19H196.84a40.19,40.19,0,0,1-40.19-40.19V191.4a40.19,40.19,0,0,1,40.19-40.19H883.16a40.19,40.19,0,0,1,40.19,40.19Z" transform="translate(-145.92 -140.32)"/></svg>